<?xml version="1.0" encoding="UTF-8" standalone="no"?>
<!-- Created with Inkscape (http://www.inkscape.org/) -->

<svg
   version="1.1"
   id="svg2"
   width="598.28418"
   height="582.9436"
   viewBox="0 0 598.28418 582.9436"
   sodipodi:docname="server.png"
   inkscape:export-filename="executor.svg"
   inkscape:export-xdpi="96"
   inkscape:export-ydpi="96"
   xml:space="preserve"
   xmlns:inkscape="http://www.inkscape.org/namespaces/inkscape"
   xmlns:sodipodi="http://sodipodi.sourceforge.net/DTD/sodipodi-0.dtd"
   xmlns="http://www.w3.org/2000/svg"
   xmlns:svg="http://www.w3.org/2000/svg"><defs
     id="defs6" /><sodipodi:namedview
     id="namedview4"
     pagecolor="#505050"
     bordercolor="#ffffff"
     borderopacity="1"
     inkscape:showpageshadow="0"
     inkscape:pageopacity="0"
     inkscape:pagecheckerboard="1"
     inkscape:deskcolor="#505050"
     showgrid="false" /><g
     inkscape:groupmode="layer"
     inkscape:label="Image"
     id="g8"
     transform="translate(-1070.7754,177.9512)"><g
       id="g2007"
       transform="matrix(1.1015691,0,0,1.0831358,-808.33207,17.855158)"
       style="stroke-width:0.915488"><path
         style="fill:#00007f;fill-opacity:1;stroke-width:0.915488"
         d="m 2142.4061,-49.0019 v -14.875 -14.875 h -29.75 -29.75 v -15 -15 h 38.8639 c 38.1029,0 38.9399,0.0428 42.7499,2.18409 2.4766,1.39197 4.6114,3.68255 5.8861,6.31572 1.8938,3.911993 2.0001,6.174881 2.0001,42.56591 v 38.43428 h -15 -15 z"
         id="path1997" /><path
         style="fill:#007800;fill-opacity:1;stroke-width:0.915488"
         d="m 1966.9061,-18.39812 c -18.9668,-3.05497 -36.8361,-13.23653 -48.4905,-27.62887 -8.5402,-10.54665 -13.4148,-22.12054 -16.6432,-39.516568 -0.422,-2.273558 -0.4448,-2.268508 -2.8916,0.639358 -2.2237,2.642768 -61.4745,44.22812 -68.9038,48.36038 -6.6485,3.69799 -15.8135,1.35433 -19.8051,-5.06454 -2.0755,-3.33759 -2.2939,-5.05005 -2.6001,-20.39354 l -0.3343,-16.75 h -21.1 c -19.0564,0 -21.5001,-0.193706 -25.2316,-2.00009 -4.7539,-2.301308 -8.4998,-8.030488 -8.4998,-12.99991 0,-4.601816 3.6106,-10.41284 8.004,-12.88211 3.5139,-1.97492 5.2217,-2.11789 25.2979,-2.11789 h 21.5295 l 0.3343,-16.75 c 0.3062,-15.34349 0.5246,-17.05595 2.6001,-20.39354 3.9916,-6.41887 13.1566,-8.76253 19.8051,-5.06454 7.4293,4.13226 66.6801,45.71761 68.9038,48.36038 2.4468,2.907866 2.4696,2.912916 2.8916,0.63936 3.2284,-17.39603 8.103,-28.96992 16.6432,-39.51657 9.7027,-11.98214 24.9289,-21.84837 39.9905,-25.91282 8.9455,-2.414 29.0545,-2.414 38,0 21.1629,5.71094 39.399,20.66174 48.9574,40.13773 5.9085,12.03888 7.4344,18.91479 7.4344,33.5 0,14.634673 -1.5402,21.534274 -7.4781,33.5 -9.6479,19.44209 -27.9461,34.54814 -48.4137,39.96783 -6.085,1.61127 -24.5129,2.76974 -30,1.88595 z"
         id="path1995" /><path
         style="fill:#ae0000;fill-opacity:1;stroke-width:0.915488"
         d="m 1902.9061,86.248101 v -15 h 74.5 74.5 v 15 14.999999 h -74.5 -74.5 z"
         id="path1993" /><path
         style="fill:#00007f;fill-opacity:1;stroke-width:0.915488"
         d="m 2144.5269,161.18958 c -14.9864,-2.68072 -29.6928,-10.41669 -40.6692,-21.39309 -29.7158,-29.71587 -29.7158,-77.380909 0,-107.09678 36.7551,-36.7550496 98.639,-26.5442304 121.5058,20.048391 5.9085,12.03889 7.4344,18.91479 7.4344,33.5 0,14.585209 -1.5259,21.461109 -7.4344,33.499999 -9.4738,19.30353 -27.9408,34.53514 -48.4574,39.96783 -7.402,1.96001 -25.1457,2.76756 -32.3792,1.47365 z"
         id="path1991" /><path
         style="fill:#ae0000;fill-opacity:1;stroke-width:0.915488"
         d="m 1784.5269,161.18958 c -14.9864,-2.68072 -29.6928,-10.41669 -40.6692,-21.39309 -29.7159,-29.71587 -29.7159,-77.380909 0,-107.09678 36.7551,-36.7550496 98.639,-26.5442304 121.5058,20.048391 5.9085,12.03889 7.4344,18.91479 7.4344,33.5 0,14.585209 -1.5259,21.461109 -7.4344,33.499999 -9.4738,19.30353 -27.9408,34.53514 -48.4574,39.96783 -7.402,1.96001 -25.1457,2.76756 -32.3792,1.47365 z"
         id="path1989" /><path
         style="fill:#ae0000;fill-opacity:1;stroke-width:0.915488"
         d="m 1790.8298,279.22875 c -2.537,-1.25581 -4.8971,-3.47826 -6.25,-5.88536 -2.128,-3.78624 -2.1737,-4.68518 -2.1737,-42.73144 V 191.7481 h 15 15 v 29.75 29.75 h 29.75 29.75 v 15 15 l -38.5,-7.9e-4 c -36.5987,-7.5e-4 -38.7013,-0.10043 -42.5763,-2.01856 z"
         id="path1987" /><path
         style="fill:#6c9300;fill-opacity:1;stroke-width:0.915488"
         d="m 2146.647,323.31291 c -6.5159,-4.09154 -7.233,-6.59985 -7.2372,-25.31481 v -16.75 h -28.25 -28.25 v -15 -15 h 28.25 28.25 v -16.75 c 0,-14.94977 0.2173,-17.10028 1.9909,-20.00914 2.8016,-4.59502 7.5835,-7.23264 13.1208,-7.23712 4.3901,-0.004 6.3181,1.16555 39.5,23.95169 36.9015,25.34048 39.3314,27.49052 39.3681,34.83441 0.039,7.75222 -1.5524,9.18252 -38.5373,34.64113 -32.6848,22.4986 -35.0704,23.9534 -39.856,24.30567 -3.865,0.28451 -5.8747,-0.11789 -8.3494,-1.67183 z"
         id="path1985" /><path
         style="fill:#6c9300;fill-opacity:1;stroke-width:0.915488"
         d="m 1964.5269,341.18958 c -14.9864,-2.68072 -29.6928,-10.41669 -40.6692,-21.39309 -29.7158,-29.71587 -29.7158,-77.38091 0,-107.09678 36.7551,-36.75505 98.639,-26.54423 121.5058,20.04839 5.9085,12.03889 7.4344,18.91479 7.4344,33.5 0,14.58521 -1.5259,21.46111 -7.4344,33.5 -9.4738,19.30353 -27.9408,34.53514 -48.4574,39.96783 -7.402,1.96001 -25.1457,2.76756 -32.3792,1.47365 z"
         id="path1981" /></g></g></svg>
