<?xml version="1.0" encoding="UTF-8" standalone="no"?>
<!-- Created with Inkscape (http://www.inkscape.org/) -->

<svg
   width="12.7mm"
   height="12.7mm"
   viewBox="0 0 12.7 12.7"
   version="1.1"
   id="svg5"
   xml:space="preserve"
   inkscape:export-filename="prototype.svg"
   inkscape:export-xdpi="9"
   inkscape:export-ydpi="9"
   xmlns:inkscape="http://www.inkscape.org/namespaces/inkscape"
   xmlns:sodipodi="http://sodipodi.sourceforge.net/DTD/sodipodi-0.dtd"
   xmlns="http://www.w3.org/2000/svg"
   xmlns:svg="http://www.w3.org/2000/svg"><sodipodi:namedview
     id="namedview7"
     pagecolor="#505050"
     bordercolor="#ffffff"
     borderopacity="1"
     inkscape:showpageshadow="0"
     inkscape:pageopacity="0"
     inkscape:pagecheckerboard="1"
     inkscape:deskcolor="#505050"
     inkscape:document-units="mm"
     showgrid="false" /><defs
     id="defs2" /><g
     inkscape:label="图层 1"
     inkscape:groupmode="layer"
     id="layer1"
     transform="translate(0,21.394068)"><path
       style="fill:#0045c3;fill-opacity:1;stroke-width:0.999992"
       d="M 5.123002,-9.0057456 C 4.9810605,-9.0553078 0.88551862,-11.269834 0.80666707,-11.33966 c -0.0396075,-0.03508 -0.0928919,-0.106453 -0.11839256,-0.158617 -0.0442437,-0.09045 -0.0464071,-0.214145 -0.0469367,-2.67417 -4.7757e-4,-2.111275 0.005201,-2.59317 0.0331802,-2.655625 0.13036511,-0.294579 0.50471189,-0.416123 0.81825669,-0.265673 0.5119838,0.245669 4.157563,2.139314 4.2124253,2.188088 0.037887,0.0337 0.091436,0.105296 0.1189448,0.159107 0.049098,0.09602 0.049991,0.14686 0.049471,2.72819 -6.653e-4,2.9660106 0.014945,2.7353501 -0.196183,2.9064763 -0.1630677,0.1321717 -0.3677252,0.1713471 -0.5544766,0.1061381 z m 2.0407831,-0.022321 c -0.068908,-0.031652 -0.1555953,-0.088239 -0.192737,-0.1257558 -0.1533612,-0.1548859 -0.1453121,0.00407 -0.1453121,-2.8697016 0,-2.575615 7.469e-4,-2.627036 0.049994,-2.723025 0.027503,-0.05381 0.081032,-0.125163 0.1189379,-0.158565 0.053658,-0.04726 3.7372921,-1.960452 4.2357711,-2.199952 0.281072,-0.135041 0.643163,-0.01942 0.775769,0.247713 0.05284,0.106469 0.05292,0.109495 0.05239,2.685412 -5.68e-4,2.459534 -0.0029,2.583211 -0.04694,2.673665 -0.02549,0.05216 -0.07887,0.123709 -0.118588,0.158989 -0.06345,0.05633 -1.012032,0.573621 -3.5955657,1.9607331 -0.6549788,0.3516614 -0.7321628,0.3871413 -0.8638888,0.3971022 -0.1175997,0.00893 -0.1680523,1.692e-4 -0.2698395,-0.046613 z M 6.0995738,-15.645146 c -0.1799362,-0.06353 -4.5449669,-2.269548 -4.6145882,-2.332148 -0.2461196,-0.22128 -0.2303809,-0.617005 0.032356,-0.813087 0.048126,-0.03593 1.0987826,-0.568392 2.3347542,-1.183251 2.3903868,-1.18914 2.3736843,-1.181922 2.5831917,-1.116451 0.1602733,0.0501 4.6314335,2.255231 4.7059435,2.320934 0.243608,0.214838 0.237868,0.579075 -0.01263,0.80055 -0.08037,0.07106 -4.4766532,2.256591 -4.6720286,2.322611 -0.1188858,0.04017 -0.244745,0.04047 -0.3569867,8.48e-4 z"
       id="path2105" /></g></svg>
