<?xml version="1.0" encoding="UTF-8" standalone="no"?>
<!-- Created with Inkscape (http://www.inkscape.org/) -->

<svg
   version="1.1"
   id="svg2"
   width="555.38977"
   height="542.3728"
   viewBox="0 0 555.38977 542.3728"
   sodipodi:docname="server.png"
   inkscape:export-filename="executor.svg"
   inkscape:export-xdpi="96"
   inkscape:export-ydpi="96"
   xml:space="preserve"
   xmlns:inkscape="http://www.inkscape.org/namespaces/inkscape"
   xmlns:sodipodi="http://sodipodi.sourceforge.net/DTD/sodipodi-0.dtd"
   xmlns="http://www.w3.org/2000/svg"
   xmlns:svg="http://www.w3.org/2000/svg"><defs
     id="defs6" /><sodipodi:namedview
     id="namedview4"
     pagecolor="#505050"
     bordercolor="#ffffff"
     borderopacity="1"
     inkscape:showpageshadow="0"
     inkscape:pageopacity="0"
     inkscape:pagecheckerboard="1"
     inkscape:deskcolor="#505050"
     showgrid="false" /><g
     inkscape:groupmode="layer"
     inkscape:label="Image"
     id="g8"
     transform="translate(-754.98303,-631.32202)"><path
       style="fill:#007b00;fill-opacity:1;fill-rule:nonzero;stroke-width:1"
       d="m 875.52201,1162.0528 c -2.20077,-0.7813 -5.63627,-3.1654 -7.63437,-5.2979 -4.56069,-4.8675 -5.87037,-10.5048 -5.87037,-25.2673 v -10.9557 l -13.25464,-0.023 c -14.37312,-0.024 -18.96293,-1.2196 -23.4605,-6.1123 -4.30651,-4.6851 -5.29955,-8.9662 -5.29955,-22.8465 v -13.0379 h -10.95464 c -15.4193,0 -20.57371,-1.2813 -25.69309,-6.3865 -2.43155,-2.4248 -4.59381,-5.7728 -5.24623,-8.1233 -0.79558,-2.866 -1.1116,-59.5589 -1.1156,-200.15695 l -0.0101,-196.15843 2.75096,-5.43175 c 2.29901,-4.53927 3.64339,-5.88378 8.18218,-8.18297 l 5.43169,-2.75119 196.13934,0.006 c 140.58441,0.003 197.27171,0.31999 200.13741,1.11562 2.3503,0.65254 5.698,2.81501 8.1226,5.24677 5.1047,5.11989 6.3858,10.27487 6.3858,25.69559 v 10.95569 l 13.2546,0.0221 c 14.373,0.0238 18.9629,1.21968 23.4604,6.1125 4.3065,4.68494 5.2995,8.96611 5.2995,22.84637 v 13.03795 h 10.9547 c 15.4319,0 20.5723,1.27984 25.707,6.40032 2.5457,2.53873 4.58,5.73471 5.2618,8.26689 0.8014,2.97698 1.0389,59.04595 0.8515,201.07274 l -0.26,196.94465 -2.5134,4.4896 c -1.6543,2.9549 -4.048,5.3488 -7.0024,7.0032 l -4.4891,2.5134 -197.5693,0.2115 c -168.51713,0.1801 -198.15729,0 -201.57029,-1.2095 z M 1246.1516,949.95561 V 779.3793 H 1075.5918 905.03233 v 170.57631 170.57629 h 170.55947 170.5598 z m -213.0745,0.50022 V 843.91052 l 53.2674,53.27266 53.2674,53.27265 -53.2674,53.27267 -53.2674,53.2726 z m 48.2598,26.26896 c 14.1714,-14.16486 25.7659,-26.20457 25.7659,-26.75488 0,-1.15157 -51.1155,-52.5378 -52.261,-52.5378 -0.4164,0 -0.7575,23.63557 -0.7575,52.5235 0,28.88791 0.3345,52.52349 0.7432,52.52349 0.4088,0 12.338,-11.58943 26.5094,-25.75431 z m -219.08344,-51.03003 0.26399,-173.82777 2.14425,-4.00178 c 2.45247,-4.57674 4.41196,-6.4889 9.35978,-9.1335 3.37629,-1.80469 9.7003,-1.88085 177.31192,-2.13536 l 173.8108,-0.26392 V 725.84155 715.35066 H 1033.0771 841.00991 v 192.08593 192.08591 h 10.48978 10.48988 z m -42.25088,-42.30104 c 0,-153.98448 0.17096,-173.51898 1.54824,-176.81546 2.06541,-4.94366 5.11308,-8.11085 9.95577,-10.34612 3.84085,-1.77283 10.95434,-1.84782 177.31201,-1.86891 l 173.3106,-0.022 V 683.3337 672.32621 l -191.81702,0.25268 -191.81713,0.25267 -0.25269,191.83582 -0.25269,191.83582 h 11.00645 11.00646 z"
       id="path1807" /></g></svg>
