<?xml version="1.0" encoding="UTF-8" standalone="no"?>
<!-- Created with Inkscape (http://www.inkscape.org/) -->

<svg
   version="1.1"
   id="svg2"
   width="512"
   height="512"
   viewBox="0 0 512 512"
   xmlns="http://www.w3.org/2000/svg"
   xmlns:svg="http://www.w3.org/2000/svg">
  <defs
     id="defs6" />
  <g
     id="g8">
    <path
       style="fill:#2b5e76;fill-opacity:1;stroke-width:1"
       d="M 37.080085,508.70385 C 31.668582,506.40401 21.706499,498.52484 14.942121,491.1947 3.5714466,478.87292 2.5187002,473.60052 0.99298859,421.33402 -0.2689738,378.10321 1.0991278,361.25122 6.8071806,349.71511 c 6.5114524,-13.15978 6.5689984,-16.8165 0.4506798,-28.64126 -9.6771439,-18.70284 -9.6771439,-112.56745 0,-131.27029 C 13.376167,177.97881 13.31862,174.3221 6.8071806,161.16232 1.0942575,149.61638 -0.2700561,132.73992 0.99298859,89.240455 2.6387987,32.557747 2.6866412,32.360725 18.726383,16.202218 L 34.80953,1.1549957e-6 H 255.99996 477.19039 L 493.27351,16.202218 c 16.03982,16.158507 16.08754,16.355529 17.73336,73.038237 1.2631,43.499465 -0.10082,60.375925 -5.81416,71.921865 -6.5114,13.15978 -6.56894,16.81649 -0.45064,28.64124 9.67726,18.70284 9.67726,112.56745 0,131.27029 -6.11818,11.82476 -6.06062,15.48148 0.45064,28.64126 5.71294,11.54593 7.07726,28.42239 5.81416,71.92185 -1.64558,56.67876 -1.69466,56.88084 -17.72942,73.03824 l -16.0793,16.20221 -215.13947,1.004 C 143.73196,512.4336 42.491587,511.00369 37.080085,508.70385 Z M 466.55655,467.72564 c 8.04088,-8.10694 8.04088,-99.02851 0,-107.13547 -8.48622,-8.55599 -412.626977,-8.55599 -421.113234,0 -8.040878,8.10696 -8.040878,99.02853 0,107.13547 8.486257,8.556 412.627014,8.556 421.113234,0 z M 84.91629,428.16338 c -3.311028,-3.33824 -6.020051,-9.8138 -6.020051,-14.39015 0,-17.45429 11.415048,-19.75182 91.140411,-18.34411 67.57567,1.19319 78.22143,2.48286 82.94905,10.04883 3.95195,6.32458 3.95185,11.03532 -3.4e-4,17.35991 -4.73288,7.5739 -15.40302,8.85294 -83.73653,10.0375 -56.74609,0.98368 -79.970352,-0.31392 -84.33254,-4.71198 z m 216.56736,0.10817 c -16.34725,-16.48159 -1.33272,-35.38478 26.23807,-33.03358 21.50358,1.8338 32.05555,14.13082 23.68322,27.59992 -6.56931,10.56847 -41.10045,14.327 -49.92129,5.43366 z m 78.71276,0 c -16.34725,-16.48159 -1.33271,-35.38478 26.2381,-33.03358 21.50359,1.8338 32.05553,14.13082 23.6832,27.59992 -6.56932,10.56847 -41.10045,14.327 -49.9213,5.43366 z m 86.36014,-119.26507 c 8.04088,-8.10696 8.04088,-99.0285 0,-107.13546 -8.48622,-8.55599 -412.626977,-8.55599 -421.113234,0 -8.040878,8.10696 -8.040878,99.0285 0,107.13546 8.486257,8.55599 412.627014,8.55599 421.113234,0 z M 84.91629,269.44419 c -3.311028,-3.33824 -6.020051,-9.81381 -6.020051,-14.39015 0,-17.45429 11.415048,-19.75183 91.140411,-18.34411 67.57567,1.19319 78.22143,2.48285 82.94905,10.04882 3.95195,6.32459 3.95185,11.03533 -3.4e-4,17.35991 -4.73288,7.57391 -15.40302,8.85294 -83.73653,10.03751 -56.74609,0.98368 -79.970352,-0.31392 -84.33254,-4.71198 z m 216.56736,0.10817 c -16.34725,-16.48159 -1.33272,-35.38478 26.23807,-33.03358 21.50358,1.8338 32.05555,14.13082 23.68322,27.59991 -6.56931,10.56848 -41.10045,14.32701 -49.92129,5.43367 z m 78.71276,0 c -16.34725,-16.48159 -1.33271,-35.38478 26.2381,-33.03358 21.50359,1.8338 32.05553,14.13082 23.6832,27.59991 -6.56932,10.56848 -41.10045,14.32701 -49.9213,5.43367 z m 86.36014,-119.26507 c 8.04088,-8.10695 8.04088,-99.028509 0,-107.135464 -8.48622,-8.555993 -412.626977,-8.555993 -421.113234,0 -8.040878,8.106955 -8.040878,99.028514 0,107.135464 8.486257,8.556 412.627014,8.556 421.113234,0 z M 84.91629,110.72499 c -3.311028,-3.33823 -6.020051,-9.8138 -6.020051,-14.390147 0,-17.454275 11.415048,-19.751823 91.140411,-18.344107 67.57567,1.193184 78.22143,2.482864 82.94905,10.048822 3.95195,6.3246 3.95185,11.035324 -3.4e-4,17.359912 -4.73288,7.57392 -15.40302,8.85295 -83.73653,10.0375 -56.74609,0.98369 -79.970352,-0.31392 -84.33254,-4.71198 z m 216.56736,0.10817 c -16.34725,-16.48158 -1.33272,-35.384787 26.23807,-33.033573 21.50358,1.833802 32.05555,14.130819 23.68322,27.599903 -6.56931,10.56847 -41.10045,14.32699 -49.92129,5.43367 z m 78.71276,0 c -16.34725,-16.48158 -1.33271,-35.384787 26.2381,-33.033573 21.50359,1.833802 32.05553,14.130819 23.6832,27.599903 -6.56932,10.56847 -41.10045,14.32699 -49.9213,5.43367 z"
       id="path1573" />
  </g>
</svg>
